G75*
G70*
%OFA0B0*%
%FSLAX24Y24*%
%IPPOS*%
%LPD*%
%AMOC8*
5,1,8,0,0,1.08239X$1,22.5*
%
%ADD10C,0.0000*%
%ADD11R,0.0138X0.0631*%
%ADD12R,0.0631X0.0138*%
%ADD13R,0.0276X0.0316*%
%ADD14C,0.0480*%
%ADD15R,0.0434X0.0473*%
%ADD16R,0.0512X0.0512*%
%ADD17R,0.0552X0.0552*%
%ADD18R,0.1457X0.0552*%
%ADD19R,0.0631X0.0808*%
%ADD20R,0.0473X0.0434*%
%ADD21OC8,0.0800*%
%ADD22R,0.0985X0.0827*%
%ADD23R,0.0949X0.0237*%
%ADD24C,0.0394*%
%ADD25R,0.0316X0.0276*%
%ADD26R,0.0552X0.0631*%
%ADD27C,0.0634*%
%ADD28R,0.1040X0.1040*%
%ADD29R,0.0512X0.1300*%
%ADD30C,0.1221*%
%ADD31R,0.0276X0.0906*%
%ADD32C,0.0434*%
%ADD33C,0.0394*%
%ADD34C,0.0700*%
%ADD35C,0.0745*%
%ADD36R,0.0591X0.1064*%
D10*
X000151Y000151D02*
X037553Y000151D01*
X037553Y027710D01*
X000151Y027710D01*
X000151Y000151D01*
X001529Y002120D02*
X001531Y002168D01*
X001537Y002216D01*
X001547Y002263D01*
X001560Y002309D01*
X001578Y002354D01*
X001598Y002398D01*
X001623Y002440D01*
X001651Y002479D01*
X001681Y002516D01*
X001715Y002550D01*
X001752Y002582D01*
X001790Y002611D01*
X001831Y002636D01*
X001874Y002658D01*
X001919Y002676D01*
X001965Y002690D01*
X002012Y002701D01*
X002060Y002708D01*
X002108Y002711D01*
X002156Y002710D01*
X002204Y002705D01*
X002252Y002696D01*
X002298Y002684D01*
X002343Y002667D01*
X002387Y002647D01*
X002429Y002624D01*
X002469Y002597D01*
X002507Y002567D01*
X002542Y002534D01*
X002574Y002498D01*
X002604Y002460D01*
X002630Y002419D01*
X002652Y002376D01*
X002672Y002332D01*
X002687Y002287D01*
X002699Y002240D01*
X002707Y002192D01*
X002711Y002144D01*
X002711Y002096D01*
X002707Y002048D01*
X002699Y002000D01*
X002687Y001953D01*
X002672Y001908D01*
X002652Y001864D01*
X002630Y001821D01*
X002604Y001780D01*
X002574Y001742D01*
X002542Y001706D01*
X002507Y001673D01*
X002469Y001643D01*
X002429Y001616D01*
X002387Y001593D01*
X002343Y001573D01*
X002298Y001556D01*
X002252Y001544D01*
X002204Y001535D01*
X002156Y001530D01*
X002108Y001529D01*
X002060Y001532D01*
X002012Y001539D01*
X001965Y001550D01*
X001919Y001564D01*
X001874Y001582D01*
X001831Y001604D01*
X001790Y001629D01*
X001752Y001658D01*
X001715Y001690D01*
X001681Y001724D01*
X001651Y001761D01*
X001623Y001800D01*
X001598Y001842D01*
X001578Y001886D01*
X001560Y001931D01*
X001547Y001977D01*
X001537Y002024D01*
X001531Y002072D01*
X001529Y002120D01*
X002269Y012498D02*
X002271Y012524D01*
X002277Y012550D01*
X002287Y012575D01*
X002300Y012598D01*
X002316Y012618D01*
X002336Y012636D01*
X002358Y012651D01*
X002381Y012663D01*
X002407Y012671D01*
X002433Y012675D01*
X002459Y012675D01*
X002485Y012671D01*
X002511Y012663D01*
X002535Y012651D01*
X002556Y012636D01*
X002576Y012618D01*
X002592Y012598D01*
X002605Y012575D01*
X002615Y012550D01*
X002621Y012524D01*
X002623Y012498D01*
X002621Y012472D01*
X002615Y012446D01*
X002605Y012421D01*
X002592Y012398D01*
X002576Y012378D01*
X002556Y012360D01*
X002534Y012345D01*
X002511Y012333D01*
X002485Y012325D01*
X002459Y012321D01*
X002433Y012321D01*
X002407Y012325D01*
X002381Y012333D01*
X002357Y012345D01*
X002336Y012360D01*
X002316Y012378D01*
X002300Y012398D01*
X002287Y012421D01*
X002277Y012446D01*
X002271Y012472D01*
X002269Y012498D01*
X002269Y014230D02*
X002271Y014256D01*
X002277Y014282D01*
X002287Y014307D01*
X002300Y014330D01*
X002316Y014350D01*
X002336Y014368D01*
X002358Y014383D01*
X002381Y014395D01*
X002407Y014403D01*
X002433Y014407D01*
X002459Y014407D01*
X002485Y014403D01*
X002511Y014395D01*
X002535Y014383D01*
X002556Y014368D01*
X002576Y014350D01*
X002592Y014330D01*
X002605Y014307D01*
X002615Y014282D01*
X002621Y014256D01*
X002623Y014230D01*
X002621Y014204D01*
X002615Y014178D01*
X002605Y014153D01*
X002592Y014130D01*
X002576Y014110D01*
X002556Y014092D01*
X002534Y014077D01*
X002511Y014065D01*
X002485Y014057D01*
X002459Y014053D01*
X002433Y014053D01*
X002407Y014057D01*
X002381Y014065D01*
X002357Y014077D01*
X002336Y014092D01*
X002316Y014110D01*
X002300Y014130D01*
X002287Y014153D01*
X002277Y014178D01*
X002271Y014204D01*
X002269Y014230D01*
X001529Y025726D02*
X001531Y025774D01*
X001537Y025822D01*
X001547Y025869D01*
X001560Y025915D01*
X001578Y025960D01*
X001598Y026004D01*
X001623Y026046D01*
X001651Y026085D01*
X001681Y026122D01*
X001715Y026156D01*
X001752Y026188D01*
X001790Y026217D01*
X001831Y026242D01*
X001874Y026264D01*
X001919Y026282D01*
X001965Y026296D01*
X002012Y026307D01*
X002060Y026314D01*
X002108Y026317D01*
X002156Y026316D01*
X002204Y026311D01*
X002252Y026302D01*
X002298Y026290D01*
X002343Y026273D01*
X002387Y026253D01*
X002429Y026230D01*
X002469Y026203D01*
X002507Y026173D01*
X002542Y026140D01*
X002574Y026104D01*
X002604Y026066D01*
X002630Y026025D01*
X002652Y025982D01*
X002672Y025938D01*
X002687Y025893D01*
X002699Y025846D01*
X002707Y025798D01*
X002711Y025750D01*
X002711Y025702D01*
X002707Y025654D01*
X002699Y025606D01*
X002687Y025559D01*
X002672Y025514D01*
X002652Y025470D01*
X002630Y025427D01*
X002604Y025386D01*
X002574Y025348D01*
X002542Y025312D01*
X002507Y025279D01*
X002469Y025249D01*
X002429Y025222D01*
X002387Y025199D01*
X002343Y025179D01*
X002298Y025162D01*
X002252Y025150D01*
X002204Y025141D01*
X002156Y025136D01*
X002108Y025135D01*
X002060Y025138D01*
X002012Y025145D01*
X001965Y025156D01*
X001919Y025170D01*
X001874Y025188D01*
X001831Y025210D01*
X001790Y025235D01*
X001752Y025264D01*
X001715Y025296D01*
X001681Y025330D01*
X001651Y025367D01*
X001623Y025406D01*
X001598Y025448D01*
X001578Y025492D01*
X001560Y025537D01*
X001547Y025583D01*
X001537Y025630D01*
X001531Y025678D01*
X001529Y025726D01*
X034993Y025714D02*
X034995Y025762D01*
X035001Y025810D01*
X035011Y025857D01*
X035024Y025903D01*
X035042Y025948D01*
X035062Y025992D01*
X035087Y026034D01*
X035115Y026073D01*
X035145Y026110D01*
X035179Y026144D01*
X035216Y026176D01*
X035254Y026205D01*
X035295Y026230D01*
X035338Y026252D01*
X035383Y026270D01*
X035429Y026284D01*
X035476Y026295D01*
X035524Y026302D01*
X035572Y026305D01*
X035620Y026304D01*
X035668Y026299D01*
X035716Y026290D01*
X035762Y026278D01*
X035807Y026261D01*
X035851Y026241D01*
X035893Y026218D01*
X035933Y026191D01*
X035971Y026161D01*
X036006Y026128D01*
X036038Y026092D01*
X036068Y026054D01*
X036094Y026013D01*
X036116Y025970D01*
X036136Y025926D01*
X036151Y025881D01*
X036163Y025834D01*
X036171Y025786D01*
X036175Y025738D01*
X036175Y025690D01*
X036171Y025642D01*
X036163Y025594D01*
X036151Y025547D01*
X036136Y025502D01*
X036116Y025458D01*
X036094Y025415D01*
X036068Y025374D01*
X036038Y025336D01*
X036006Y025300D01*
X035971Y025267D01*
X035933Y025237D01*
X035893Y025210D01*
X035851Y025187D01*
X035807Y025167D01*
X035762Y025150D01*
X035716Y025138D01*
X035668Y025129D01*
X035620Y025124D01*
X035572Y025123D01*
X035524Y025126D01*
X035476Y025133D01*
X035429Y025144D01*
X035383Y025158D01*
X035338Y025176D01*
X035295Y025198D01*
X035254Y025223D01*
X035216Y025252D01*
X035179Y025284D01*
X035145Y025318D01*
X035115Y025355D01*
X035087Y025394D01*
X035062Y025436D01*
X035042Y025480D01*
X035024Y025525D01*
X035011Y025571D01*
X035001Y025618D01*
X034995Y025666D01*
X034993Y025714D01*
X034993Y002120D02*
X034995Y002168D01*
X035001Y002216D01*
X035011Y002263D01*
X035024Y002309D01*
X035042Y002354D01*
X035062Y002398D01*
X035087Y002440D01*
X035115Y002479D01*
X035145Y002516D01*
X035179Y002550D01*
X035216Y002582D01*
X035254Y002611D01*
X035295Y002636D01*
X035338Y002658D01*
X035383Y002676D01*
X035429Y002690D01*
X035476Y002701D01*
X035524Y002708D01*
X035572Y002711D01*
X035620Y002710D01*
X035668Y002705D01*
X035716Y002696D01*
X035762Y002684D01*
X035807Y002667D01*
X035851Y002647D01*
X035893Y002624D01*
X035933Y002597D01*
X035971Y002567D01*
X036006Y002534D01*
X036038Y002498D01*
X036068Y002460D01*
X036094Y002419D01*
X036116Y002376D01*
X036136Y002332D01*
X036151Y002287D01*
X036163Y002240D01*
X036171Y002192D01*
X036175Y002144D01*
X036175Y002096D01*
X036171Y002048D01*
X036163Y002000D01*
X036151Y001953D01*
X036136Y001908D01*
X036116Y001864D01*
X036094Y001821D01*
X036068Y001780D01*
X036038Y001742D01*
X036006Y001706D01*
X035971Y001673D01*
X035933Y001643D01*
X035893Y001616D01*
X035851Y001593D01*
X035807Y001573D01*
X035762Y001556D01*
X035716Y001544D01*
X035668Y001535D01*
X035620Y001530D01*
X035572Y001529D01*
X035524Y001532D01*
X035476Y001539D01*
X035429Y001550D01*
X035383Y001564D01*
X035338Y001582D01*
X035295Y001604D01*
X035254Y001629D01*
X035216Y001658D01*
X035179Y001690D01*
X035145Y001724D01*
X035115Y001761D01*
X035087Y001800D01*
X035062Y001842D01*
X035042Y001886D01*
X035024Y001931D01*
X035011Y001977D01*
X035001Y002024D01*
X034995Y002072D01*
X034993Y002120D01*
D11*
X022735Y012538D03*
X022539Y012538D03*
X022342Y012538D03*
X022145Y012538D03*
X021948Y012538D03*
X021751Y012538D03*
X021554Y012538D03*
X021357Y012538D03*
X021161Y012538D03*
X020964Y012538D03*
X020767Y012538D03*
X020570Y012538D03*
X020570Y015924D03*
X020767Y015924D03*
X020964Y015924D03*
X021161Y015924D03*
X021357Y015924D03*
X021554Y015924D03*
X021751Y015924D03*
X021948Y015924D03*
X022145Y015924D03*
X022342Y015924D03*
X022539Y015924D03*
X022735Y015924D03*
D12*
X023346Y015313D03*
X023346Y015117D03*
X023346Y014920D03*
X023346Y014723D03*
X023346Y014526D03*
X023346Y014329D03*
X023346Y014132D03*
X023346Y013935D03*
X023346Y013739D03*
X023346Y013542D03*
X023346Y013345D03*
X023346Y013148D03*
X019960Y013148D03*
X019960Y013345D03*
X019960Y013542D03*
X019960Y013739D03*
X019960Y013935D03*
X019960Y014132D03*
X019960Y014329D03*
X019960Y014526D03*
X019960Y014723D03*
X019960Y014920D03*
X019960Y015117D03*
X019960Y015313D03*
D13*
X008931Y007262D03*
X008183Y007262D03*
X008557Y008050D03*
D14*
X020553Y009191D02*
X020553Y009631D01*
X022553Y009631D02*
X022553Y009191D01*
D15*
X022503Y007895D03*
X022503Y007226D03*
X020511Y007265D03*
X020511Y007934D03*
X028951Y012615D03*
X028951Y013284D03*
X023642Y017131D03*
X023642Y017800D03*
X023989Y022668D03*
X023989Y023337D03*
X026195Y023337D03*
X026195Y022668D03*
X021217Y022765D03*
X021217Y023434D03*
X009500Y016970D03*
X009500Y016301D03*
X009467Y015084D03*
X009467Y014415D03*
X009322Y012030D03*
X009322Y011361D03*
X005353Y012432D03*
X005353Y013102D03*
X001850Y010373D03*
X001850Y009704D03*
X001753Y016279D03*
X001753Y016948D03*
D16*
X002901Y017064D03*
X002901Y016237D03*
X002901Y010565D03*
X002901Y009738D03*
X023600Y018631D03*
X023600Y019458D03*
D17*
X013458Y015468D03*
X012553Y015468D03*
X011647Y015468D03*
D18*
X012553Y013066D03*
D19*
X010900Y016694D03*
X010900Y017777D03*
X012650Y017644D03*
X012650Y018727D03*
D20*
X012722Y016528D03*
X013392Y016528D03*
X016817Y013901D03*
X017486Y013901D03*
X022567Y010901D03*
X023236Y010901D03*
X010820Y011403D03*
X010151Y011403D03*
X007936Y009651D03*
X007267Y009651D03*
X006426Y009656D03*
X005757Y009656D03*
X005757Y010645D03*
X006426Y010645D03*
X004976Y010656D03*
X004307Y010656D03*
X007018Y012867D03*
X007687Y012867D03*
X007687Y013667D03*
X007018Y013667D03*
X008768Y008807D03*
X009437Y008807D03*
D21*
X007079Y021036D03*
X007079Y022036D03*
X007079Y023036D03*
D22*
X003431Y015096D03*
X001265Y015096D03*
X001265Y011631D03*
X003431Y011631D03*
D23*
X003653Y012734D03*
X003653Y013049D03*
X003653Y013364D03*
X003653Y013679D03*
X003653Y013994D03*
D24*
X002446Y014230D03*
X002446Y012498D03*
D25*
X004735Y009627D03*
X003948Y009253D03*
X004735Y008879D03*
X008046Y011293D03*
X007259Y011667D03*
X008046Y012041D03*
D26*
X016943Y012900D03*
X017691Y012900D03*
X022161Y006212D03*
X022909Y006212D03*
D27*
X022651Y001698D02*
X022651Y001104D01*
X023651Y001104D02*
X023651Y001698D01*
X024651Y001698D02*
X024651Y001104D01*
X025651Y001104D02*
X025651Y001698D01*
X026651Y001698D02*
X026651Y001104D01*
X027651Y001104D02*
X027651Y001698D01*
X028651Y001698D02*
X028651Y001104D01*
X021651Y001104D02*
X021651Y001698D01*
X020651Y001698D02*
X020651Y001104D01*
X019651Y001104D02*
X019651Y001698D01*
X018651Y001698D02*
X018651Y001104D01*
X017651Y001104D02*
X017651Y001698D01*
X016651Y001698D02*
X016651Y001104D01*
X015651Y001104D02*
X015651Y001698D01*
X014651Y001698D02*
X014651Y001104D01*
X013651Y001104D02*
X013651Y001698D01*
X012651Y001698D02*
X012651Y001104D01*
X011651Y001104D02*
X011651Y001698D01*
X010651Y001698D02*
X010651Y001104D01*
X007448Y015651D02*
X006854Y015651D01*
X006854Y016651D02*
X007448Y016651D01*
X007448Y017651D02*
X006854Y017651D01*
X006854Y018651D02*
X007448Y018651D01*
X009354Y020901D02*
X009948Y020901D01*
X009948Y021901D02*
X009354Y021901D01*
X009354Y022901D02*
X009948Y022901D01*
X009651Y026355D02*
X009651Y026949D01*
X010651Y026949D02*
X010651Y026355D01*
X011651Y026355D02*
X011651Y026949D01*
X012651Y026949D02*
X012651Y026355D01*
X013651Y026355D02*
X013651Y026949D01*
X014651Y026949D02*
X014651Y026355D01*
X015651Y026355D02*
X015651Y026949D01*
X016651Y026949D02*
X016651Y026355D01*
X017651Y026355D02*
X017651Y026949D01*
X018651Y026949D02*
X018651Y026355D01*
X019651Y026354D02*
X019651Y026948D01*
X020651Y026948D02*
X020651Y026354D01*
X021651Y026354D02*
X021651Y026948D01*
X022651Y026948D02*
X022651Y026354D01*
X023651Y026354D02*
X023651Y026948D01*
X024651Y026948D02*
X024651Y026354D01*
X025651Y026354D02*
X025651Y026948D01*
X026651Y026948D02*
X026651Y026354D01*
X027651Y026354D02*
X027651Y026948D01*
X028651Y026948D02*
X028651Y026354D01*
X029651Y026354D02*
X029651Y026948D01*
D28*
X005185Y023078D03*
X005185Y021228D03*
D29*
X005501Y007691D03*
X007076Y007691D03*
X003540Y007690D03*
X001965Y007690D03*
X001965Y005013D03*
X003540Y005013D03*
X005501Y005014D03*
X007076Y005014D03*
D30*
X002120Y002120D03*
X002120Y025726D03*
X035584Y025714D03*
X035584Y002120D03*
D31*
X028801Y014529D03*
X028301Y014529D03*
X027801Y014529D03*
X027301Y014529D03*
X027301Y016576D03*
X027801Y016576D03*
X028301Y016576D03*
X028801Y016576D03*
D32*
X030951Y021314D03*
X006801Y002527D03*
D33*
X006329Y002527D02*
X006331Y002570D01*
X006337Y002612D01*
X006347Y002654D01*
X006360Y002695D01*
X006377Y002735D01*
X006398Y002772D01*
X006422Y002808D01*
X006449Y002841D01*
X006479Y002872D01*
X006512Y002900D01*
X006547Y002925D01*
X006584Y002946D01*
X006623Y002964D01*
X006663Y002978D01*
X006705Y002989D01*
X006747Y002996D01*
X006790Y002999D01*
X006833Y002998D01*
X006876Y002993D01*
X006918Y002984D01*
X006959Y002972D01*
X006999Y002956D01*
X007037Y002936D01*
X007073Y002913D01*
X007107Y002886D01*
X007139Y002857D01*
X007167Y002825D01*
X007193Y002790D01*
X007215Y002754D01*
X007234Y002715D01*
X007249Y002675D01*
X007261Y002634D01*
X007269Y002591D01*
X007273Y002548D01*
X007273Y002506D01*
X007269Y002463D01*
X007261Y002420D01*
X007249Y002379D01*
X007234Y002339D01*
X007215Y002300D01*
X007193Y002264D01*
X007167Y002229D01*
X007139Y002197D01*
X007107Y002168D01*
X007073Y002141D01*
X007037Y002118D01*
X006999Y002098D01*
X006959Y002082D01*
X006918Y002070D01*
X006876Y002061D01*
X006833Y002056D01*
X006790Y002055D01*
X006747Y002058D01*
X006705Y002065D01*
X006663Y002076D01*
X006623Y002090D01*
X006584Y002108D01*
X006547Y002129D01*
X006512Y002154D01*
X006479Y002182D01*
X006449Y002213D01*
X006422Y002246D01*
X006398Y002282D01*
X006377Y002319D01*
X006360Y002359D01*
X006347Y002400D01*
X006337Y002442D01*
X006331Y002484D01*
X006329Y002527D01*
X030479Y021314D02*
X030481Y021357D01*
X030487Y021399D01*
X030497Y021441D01*
X030510Y021482D01*
X030527Y021522D01*
X030548Y021559D01*
X030572Y021595D01*
X030599Y021628D01*
X030629Y021659D01*
X030662Y021687D01*
X030697Y021712D01*
X030734Y021733D01*
X030773Y021751D01*
X030813Y021765D01*
X030855Y021776D01*
X030897Y021783D01*
X030940Y021786D01*
X030983Y021785D01*
X031026Y021780D01*
X031068Y021771D01*
X031109Y021759D01*
X031149Y021743D01*
X031187Y021723D01*
X031223Y021700D01*
X031257Y021673D01*
X031289Y021644D01*
X031317Y021612D01*
X031343Y021577D01*
X031365Y021541D01*
X031384Y021502D01*
X031399Y021462D01*
X031411Y021421D01*
X031419Y021378D01*
X031423Y021335D01*
X031423Y021293D01*
X031419Y021250D01*
X031411Y021207D01*
X031399Y021166D01*
X031384Y021126D01*
X031365Y021087D01*
X031343Y021051D01*
X031317Y021016D01*
X031289Y020984D01*
X031257Y020955D01*
X031223Y020928D01*
X031187Y020905D01*
X031149Y020885D01*
X031109Y020869D01*
X031068Y020857D01*
X031026Y020848D01*
X030983Y020843D01*
X030940Y020842D01*
X030897Y020845D01*
X030855Y020852D01*
X030813Y020863D01*
X030773Y020877D01*
X030734Y020895D01*
X030697Y020916D01*
X030662Y020941D01*
X030629Y020969D01*
X030599Y021000D01*
X030572Y021033D01*
X030548Y021069D01*
X030527Y021106D01*
X030510Y021146D01*
X030497Y021187D01*
X030487Y021229D01*
X030481Y021271D01*
X030479Y021314D01*
D34*
X029651Y001731D02*
X029651Y001071D01*
X009651Y001072D02*
X009651Y001732D01*
D35*
X003004Y019401D02*
X002299Y019401D01*
X002299Y021401D02*
X003004Y021401D01*
D36*
X006151Y024344D03*
X006151Y025958D03*
M02*
