%
M48
M72
T01C0.0157
T02C0.0197
T03C0.0240
T04C0.0354
T05C0.0394
T06C0.0470
T07C0.1181
%
T01
X9401Y7401
X9901Y8401
X8401Y9651
X7051Y10651
X8528Y12282
X9901Y12151
X10751Y12051
X9279Y13651
X10251Y14751
X10751Y14951
X10751Y13701
X8901Y15251
X6151Y13901
X4651Y13151
X6151Y16651
X4651Y16901
X1901Y17651
X12274Y16028
X14151Y15401
X14524Y15901
X14401Y16651
X15401Y16901
X16151Y17901
X16651Y17151
X18151Y17751
X17151Y18651
X14401Y18651
X15278Y15528
X15151Y13651
X18401Y13651
X18901Y13651
X19401Y13651
X18901Y12651
X19651Y12401
X19651Y11651
X20151Y11401
X22151Y10901
X22251Y11651
X22669Y11688
X23401Y12801
X25151Y13401
X24524Y14024
X24901Y14401
X25151Y14651
X24901Y14901
X24651Y15151
X24151Y15151
X23524Y15518
X22901Y15901
X22901Y17151
X24401Y16651
X24651Y16151
X26151Y15901
X26651Y16651
X26534Y17034
X26279Y17401
X26401Y18151
X27529Y18651
X29151Y18651
X26251Y22151
X23901Y22151
X21651Y21401
X21401Y22151
X23651Y20151
X21401Y18651
X20401Y16151
X19401Y15901
X18901Y15528
X24401Y11401
X24151Y10901
X24651Y10651
X23651Y10151
X27151Y11151
X27901Y11401
X28151Y10151
X26651Y13901
X26151Y14024
X26401Y14401
X25901Y14901
X29151Y14651
X19351Y9151
X18524Y8774
X17024Y10274
X17551Y10651
X15901Y10779
X15424Y10401
X18651Y4651
X20651Y3901
X21651Y3151
X24151Y3901
X30151Y4651
X30401Y3151
X16651Y23901
X16151Y23901
X15401Y24651
T02
X16151Y2401
T03
X20553Y9411
X22553Y9411
T04
X2446Y12498
X2446Y14230
T05
X7151Y15651
X7151Y16651
X7151Y17651
X7151Y18651
X7079Y21036
X7079Y22036
X7079Y23036
X9651Y22901
X9651Y21901
X9651Y20901
X9651Y26652
X10651Y26652
X11651Y26652
X12651Y26652
X13651Y26652
X14651Y26652
X15651Y26652
X16651Y26652
X17651Y26652
X18651Y26652
X19651Y26651
X20651Y26651
X21651Y26651
X22651Y26651
X23651Y26651
X24651Y26651
X25651Y26651
X26651Y26651
X27651Y26651
X28651Y26651
X29651Y26651
X29651Y1401
X28651Y1401
X27651Y1401
X26651Y1401
X25651Y1401
X24651Y1401
X23651Y1401
X22651Y1401
X21651Y1401
X20651Y1401
X19651Y1401
X18651Y1401
X17651Y1401
X16651Y1401
X15651Y1401
X14651Y1401
X13651Y1401
X12651Y1401
X11651Y1401
X10651Y1401
X9651Y1402
T06
X2651Y19401
X2651Y21401
T07
X2120Y2120
X2120Y25726
X35584Y25714
X35584Y2120
M30
